<svg id="Слой_1" data-name="Слой 1" xmlns="http://www.w3.org/2000/svg" viewBox="0 0 1148.83 1045.85"><defs><style>.cls-1,.cls-2{stroke:#000;stroke-miterlimit:10;}.cls-2{fill:#fff;}</style></defs><rect class="cls-1" x="2.83" y="0.5" width="1145.94" height="1044.85"/><polygon class="cls-2" points="321.38 739.58 258.73 739.58 380.42 458.86 530.05 629.94 580.42 575.73 604.51 628.74 530.05 708.25 394.87 548.01 321.38 739.58"/><polygon class="cls-2" points="414.15 587.77 450.3 626.33 414.15 739.58 356.32 739.58 414.15 587.77"/><polygon class="cls-2" points="443.07 513.07 481.62 555.24 530.05 428.74 656.32 744.4 710.54 744.4 530.05 302.23 443.07 513.07"/><polygon class="cls-2" points="629.81 523.32 650.3 572.11 669.57 547.71 747.89 739.58 810.54 739.58 686.44 458.86 629.81 523.32"/><path class="cls-2" d="M817.45,738.8c144.17-118.54,40.21-268.46-25.14-265.15-.25.08-1-.31-.06-.45,61.94-8.77,126.28-167-48.92-171.75H546.88l19.71,42.21,179.25.25c132-4.17,70.95,121-25.37,130.69-1.33.14-1.16.75.13,1.11C954.54,542.45,801,698.17,801,698.17Z"/></svg>